<?xml version="1.0" encoding="UTF-8"?>
<svg width="33px" height="33px" viewBox="0 0 33 33" version="1.1" xmlns="http://www.w3.org/2000/svg" xmlns:xlink="http://www.w3.org/1999/xlink">
    <!-- Generator: Sketch 48.1 (47250) - http://www.bohemiancoding.com/sketch -->
    <title>Fill 576</title>
    <desc>Created with Sketch.</desc>
    <defs></defs>
    <g id="Page-1" stroke="none" stroke-width="1" fill="none" fill-rule="evenodd">
        <g id="Flat-Social-Icons" transform="translate(-372.000000, -382.000000)" fill="#35578C">
            <path d="M391.581,398.877 L389.339,398.877 C389.339,402.459 389.339,406.871 389.339,406.871 L386.017,406.871 C386.017,406.871 386.017,402.504 386.017,398.877 L384.437,398.877 L384.437,396.053 L386.017,396.053 L386.017,394.225 C386.017,392.916 386.638,390.871 389.369,390.871 L391.83,390.881 L391.83,393.623 C391.83,393.623 390.334,393.623 390.044,393.623 C389.753,393.623 389.339,393.768 389.339,394.393 L389.339,396.053 L391.872,396.053 L391.581,398.877 Z M388.153,382.871 C379.317,382.871 372.153,390.035 372.153,398.871 C372.153,407.709 379.317,414.871 388.153,414.871 C396.99,414.871 404.153,407.709 404.153,398.871 C404.153,390.035 396.99,382.871 388.153,382.871 Z" id="Fill-576"></path>
        </g>
    </g>
</svg>