<?xml version="1.0" encoding="UTF-8"?>
<svg width="33px" height="33px" viewBox="0 0 33 33" version="1.1" xmlns="http://www.w3.org/2000/svg" xmlns:xlink="http://www.w3.org/1999/xlink">
    <!-- Generator: Sketch 48.1 (47250) - http://www.bohemiancoding.com/sketch -->
    <title>Fill 579</title>
    <desc>Created with Sketch.</desc>
    <defs></defs>
    <g id="Page-1" stroke="none" stroke-width="1" fill="none" fill-rule="evenodd">
        <g id="Flat-Social-Icons" transform="translate(-467.000000, -382.000000)" fill="#1D638A">
            <path d="M491.763,406.518 L488.333,406.518 L488.333,400.998 C488.333,399.611 487.837,398.664 486.595,398.664 C485.648,398.664 485.083,399.305 484.835,399.92 C484.744,400.141 484.722,400.445 484.722,400.756 L484.722,406.518 L481.293,406.518 C481.293,406.518 481.337,397.168 481.293,396.201 L484.722,396.201 L484.722,397.662 C485.179,396.957 485.993,395.959 487.813,395.959 C490.069,395.959 491.763,397.432 491.763,400.602 L491.763,406.518 Z M477.68,394.791 L477.657,394.791 C476.507,394.791 475.763,393.998 475.763,393.008 C475.763,391.996 476.53,391.225 477.702,391.225 C478.876,391.225 479.599,391.996 479.62,393.008 C479.62,393.998 478.876,394.791 477.68,394.791 Z M475.965,406.518 L479.396,406.518 L479.396,396.201 L475.965,396.201 L475.965,406.518 Z M483.763,382.871 C474.926,382.871 467.763,390.035 467.763,398.871 C467.763,407.709 474.926,414.871 483.763,414.871 C492.599,414.871 499.763,407.709 499.763,398.871 C499.763,390.035 492.599,382.871 483.763,382.871 Z" id="Fill-579"></path>
        </g>
    </g>
</svg>