<?xml version="1.0" encoding="UTF-8"?>
<svg width="33px" height="33px" viewBox="0 0 33 33" version="1.1" xmlns="http://www.w3.org/2000/svg" xmlns:xlink="http://www.w3.org/1999/xlink">
    <!-- Generator: Sketch 48.1 (47250) - http://www.bohemiancoding.com/sketch -->
    <title>Fill 577</title>
    <desc>Created with Sketch.</desc>
    <defs></defs>
    <g id="Page-1" stroke="none" stroke-width="1" fill="none" fill-rule="evenodd">
        <g id="Flat-Social-Icons" transform="translate(-419.000000, -382.000000)" fill="#38A0CD">
            <path d="M442.32,395.609 C442.327,395.75 442.33,395.891 442.33,396.033 C442.33,400.371 439.028,405.373 432.99,405.373 C431.136,405.373 429.411,404.83 427.958,403.898 C428.216,403.928 428.477,403.943 428.741,403.943 C430.28,403.943 431.694,403.42 432.817,402.539 C431.382,402.512 430.169,401.563 429.752,400.26 C429.952,400.297 430.157,400.318 430.369,400.318 C430.669,400.318 430.959,400.277 431.233,400.203 C429.733,399.9 428.601,398.574 428.601,396.984 C428.601,396.971 428.601,396.957 428.601,396.943 C429.044,397.189 429.55,397.336 430.088,397.354 C429.207,396.766 428.628,395.76 428.628,394.621 C428.628,394.02 428.79,393.455 429.072,392.971 C430.69,394.957 433.11,396.264 435.838,396.4 C435.782,396.16 435.753,395.91 435.753,395.652 C435.753,393.84 437.223,392.371 439.036,392.371 C439.979,392.371 440.833,392.77 441.432,393.406 C442.179,393.26 442.882,392.986 443.517,392.609 C443.271,393.377 442.751,394.02 442.073,394.426 C442.737,394.348 443.37,394.17 443.958,393.91 C443.519,394.568 442.962,395.146 442.32,395.609 Z M435.958,382.871 C427.122,382.871 419.958,390.035 419.958,398.871 C419.958,407.709 427.122,414.871 435.958,414.871 C444.794,414.871 451.958,407.709 451.958,398.871 C451.958,390.035 444.794,382.871 435.958,382.871 Z" id="Fill-577"></path>
        </g>
    </g>
</svg>